{"title":"Paradise Faith 2012 LIMITED 720p BluRay HEVC 2CH x265","uid":15559578,"size":852259150,"categoryP":"video","categoryS":"hd___movies","magnet":"?xt=urn:btih:e03e3e1d1f88814508aedf4839383754e12417a7&amp;dn=Paradise+Faith+2012+LIMITED+720p+BluRay+HEVC+2CH+x265&amp;tr=udp%3A%2F%2Ftracker.leechers-paradise.org%3A6969&amp;tr=udp%3A%2F%2Fzer0day.ch%3A1337&amp;tr=udp%3A%2F%2Fopen.demonii.com%3A1337&amp;tr=udp%3A%2F%2Ftracker.coppersurfer.tk%3A6969&amp;tr=udp%3A%2F%2Fexodus.desync.com%3A6969","seeders":1,"leechers":0,"uploader":"nayhtut","files":1,"time":1471111923,"description":"[Screenshots]\r\n \nhttps://s10.postimg.org/es8fjz349/Paradise_Faith_2012_Limited_720p_Blu_Ray_HEVC_2_CH.jpg \nhttps://s10.postimg.org/szy48mft5/Paradise_Faith_2012_Limited_720p_Blu_Ray_HEVC_2_CH.jpg \nhttps://s10.postimg.org/5a8ojxhft/Paradise_Faith_2012_Limited_720p_Blu_Ray_HEVC_2_CH.jpg\r\n\r\n\r\nSource: Paradise Faith 2012 LIMITED 720p BluRay x264-USURY (5.46 GB)\r\n\r\n\r\n__--__--__--__--__--__--__--__--__--__--__--__--__--\r\n\r\n\r\nComplete name                            : Paradise.Faith.2012.Limited.720p.BluRay.HEVC.2CH.x265.mkv\r\nFormat                                   : Matroska\r\nFormat version                           : Version 4 / Version 2\r\nFile size                                : 813 MiB\r\nDuration                                 : 1h 53mn\r\nOverall bit rate                         : 1 001 Kbps\r\nWriting application                      : Lavf57.25.100\r\nWriting library                          : Lavf57.25.100\r\n\r\nVideo\r\n\r\nID                                       : 1\r\nFormat                                   : V_MPEGH/ISO/HEVC\r\nCodec ID                                 : V_MPEGH/ISO/HEVC\r\nDuration                                 : 1h 53mn\r\nBit rate                                 : 789 Kbps\r\nWidth                                    : 1 280 pixels\r\nHeight                                   : 696 pixels\r\nDisplay aspect ratio                     : 1.85:1\r\nFrame rate                               : 25.000 fps\r\nBits/(Pixel*Frame)                       : 0.035\r\nStream size                              : 641 MiB (79%)\r\nWriting library                          : Lavc57.48.101 libx265\r\nLanguage                                 : English\r\nDefault                                  : Yes\r\nForced                                   : No\r\nDURATION                                 : 01:53:31.891000000\r\nNUMBER_OF_FRAMES                         : 163321\r\nNUMBER_OF_BYTES                          : 4579315675\r\n_STATISTICS_WRITING_APP                  : mkvmerge v8.3.0 ('Over the Horizon') 64bit\r\n_STATISTICS_WRITING_DATE_UTC             : 2016-08-10 22:40:25\r\n_STATISTICS_TAGS                         : BPS DURATION NUMBER_OF_FRAMES NUMBER_OF_BYTES\r\n\r\nAudio\r\n\r\nID                                       : 2\r\nFormat                                   : AC-3\r\nFormat/Info                              : Audio Coding 3\r\nMode extension                           : CM (complete main)\r\nFormat settings, Endianness              : Big\r\nCodec ID                                 : A_AC3\r\nDuration                                 : 1h 53mn\r\nBit rate mode                            : Constant\r\nBit rate                                 : 192 Kbps\r\nChannel(s)                               : 2 channels\r\nChannel positions                        : Front: L R\r\nSampling rate                            : 48.0 KHz\r\nBit depth                                : 16 bits\r\nCompression mode                         : Lossy\r\nStream size                              : 156 MiB (19%)\r\nWriting library                          : Lavc57.24.102 ac3\r\nLanguage                                 : German\r\nDefault                                  : Yes\r\nForced                                   : No\r\nDURATION                                 : 01:53:32.095000000\r\nNUMBER_OF_FRAMES                         : 638627\r\nNUMBER_OF_BYTES                          : 1284917524\r\n_STATISTICS_WRITING_APP                  : mkvmerge v8.3.0 ('Over the Horizon') 64bit\r\n_STATISTICS_WRITING_DATE_UTC             : 2016-08-10 22:40:25\r\n_STATISTICS_TAGS                         : BPS DURATION NUMBER_OF_FRAMES NUMBER_OF_BYTES\r\n\r\nText\r\n\r\nID                                       : 3\r\nFormat                                   : ASS\r\nCodec ID                                 : S_TEXT/ASS\r\nCodec ID/Info                            : Advanced Sub Station Alpha\r\nCompression mode                         : Lossless\r\nTitle                                    : forced\r\nWriting library                          : Lavc57.48.101 ssa\r\nLanguage                                 : English\r\nDefault                                  : Yes\r\nForced                                   : Yes\r\nDURATION                                 : 01:53:25.976000000\r\nNUMBER_OF_FRAMES                         : 798\r\nNUMBER_OF_BYTES                          : 26281\r\n_STATISTICS_WRITING_APP                  : mkvmerge v8.3.0 ('Over the Horizon') 64bit\r\n_STATISTICS_WRITING_DATE_UTC             : 2016-08-10 22:40:25\r\n_STATISTICS_TAGS                         : BPS DURATION NUMBER_OF_FRAMES NUMBER_OF_BYTES\r\n\r\nMenu\r\n\r\n00:00:00.000                             : :00:00:00.000\r\n00:03:22.285                             : :00:03:22.285\r\n00:10:30.880                             : :00:10:30.880\r\n00:22:48.158                             : :00:22:48.158\r\n00:34:34.698                             : :00:34:34.698\r\n00:42:33.760                             : :00:42:33.760\r\n00:50:24.688                             : :00:50:24.688\r\n01:03:33.059                             : :01:03:33.059\r\n01:19:00.945                             : :01:19:00.945\r\n01:31:29.693                             : :01:31:29.693\r\n01:40:42.703                             : :01:40:42.703\r\n01:49:40.365                             : :01:49:40.365\r\n\r\n__--__--__--__--__--__--__--__--__--__--__--__--__--\r\n\r\n\r\nIMDb: http://www.imdb.com/title/tt1403214\r\n\r\n\r\n__--__--__--__--__--__--__--__--__--__--__--__--__--\r\n\r\n\r\nAfter adding torrent with magnet link,\r\n\r\nplease add this  following trackers list to the torrent for better seeds.\r\n\r\n\r\nudp://tracker.coppersurfer.tk:6969/announce\r\n\r\nudp://tracker.opentrackr.org:1337/announce\r\n \nhttp://tracker.baravik.org:6970/announce\r\n \nhttp://tracker2.wasabii.com.tw:6969/announce\r\n\r\nudp://9.rarbg.me:2710/announce\r\n\r\n\r\n__--__--__--__--__--__--__--__--__--__--__--__--__--\r\n\r\n\r\nEnjoy!","torrent":{"xt":"urn:btih:e03e3e1d1f88814508aedf4839383754e12417a7","amp;dn":"Paradise+Faith+2012+LIMITED+720p+BluRay+HEVC+2CH+x265","amp;tr":["udp%3A%2F%2Ftracker.leechers-paradise.org%3A6969","udp%3A%2F%2Fzer0day.ch%3A1337","udp%3A%2F%2Fopen.demonii.com%3A1337","udp%3A%2F%2Ftracker.coppersurfer.tk%3A6969","udp%3A%2F%2Fexodus.desync.com%3A6969"],"infoHash":"e03e3e1d1f88814508aedf4839383754e12417a7","infoHashBuffer":{"type":"Buffer","data":[224,62,62,29,31,136,129,69,8,174,223,72,57,56,55,84,225,36,23,167]},"announce":[],"urlList":[]}}